<svg 
 xmlns="http://www.w3.org/2000/svg"
 xmlns:xlink="http://www.w3.org/1999/xlink"
 width="57px" height="16px">
<path fill-rule="evenodd"  fill="rgb(176, 190, 197)"
 d="M56.580,15.987 L53.931,15.987 C53.739,15.987 53.570,15.860 53.514,15.674 L52.399,11.996 L46.798,11.996 L45.728,15.669 C45.673,15.858 45.502,15.987 45.309,15.987 L42.927,15.987 C42.626,15.987 42.416,15.685 42.515,15.396 L47.704,0.283 C47.766,0.105 47.931,-0.014 48.117,-0.014 L51.390,-0.014 C51.576,-0.014 51.741,0.105 51.802,0.283 L56.992,15.397 C57.091,15.685 56.881,15.987 56.580,15.987 ZM49.843,3.101 L49.646,3.101 L47.565,9.761 L51.889,9.761 L49.843,3.101 ZM34.045,15.987 L28.361,15.987 C28.120,15.987 27.925,15.789 27.925,15.543 L27.925,0.433 C27.925,0.187 28.120,-0.012 28.361,-0.012 L34.045,-0.012 C38.750,-0.012 41.470,2.869 41.470,7.877 C41.470,13.073 38.783,15.987 34.045,15.987 ZM33.846,2.653 L30.991,2.653 L30.991,13.323 L33.846,13.323 C36.775,13.323 38.420,11.312 38.420,7.932 C38.420,4.697 36.720,2.653 33.846,2.653 ZM24.444,2.650 L17.896,2.650 L17.896,7.093 L24.007,7.093 C24.248,7.093 24.444,7.292 24.444,7.538 L24.444,9.316 C24.444,9.562 24.248,9.761 24.007,9.761 L17.896,9.761 L17.896,15.543 C17.896,15.789 17.701,15.987 17.460,15.987 L15.266,15.987 C15.025,15.987 14.830,15.789 14.830,15.543 L14.830,0.444 C14.830,0.198 15.025,-0.001 15.266,-0.001 L24.444,-0.001 C24.685,-0.001 24.880,0.198 24.880,0.444 L24.880,2.205 C24.880,2.451 24.685,2.650 24.444,2.650 ZM10.916,15.982 L0.429,15.982 C0.188,15.982 -0.008,15.783 -0.008,15.538 L-0.008,0.433 C-0.008,0.188 0.188,-0.011 0.429,-0.011 L11.120,-0.011 C11.215,-0.011 11.269,0.100 11.212,0.177 L7.018,5.777 L10.916,5.777 C11.157,5.777 11.352,5.976 11.352,6.221 L11.352,15.538 C11.352,15.783 11.157,15.982 10.916,15.982 Z"/>
</svg>