<svg 
 xmlns="http://www.w3.org/2000/svg"
 xmlns:xlink="http://www.w3.org/1999/xlink"
 width="9px" height="16px">
<path fill-rule="evenodd"  fill="rgb(255, 255, 255)"
 d="M8.713,8.713 C8.694,8.733 8.667,8.740 8.646,8.758 L1.691,15.713 C1.303,16.101 0.674,16.101 0.287,15.713 C-0.101,15.326 -0.101,14.697 0.287,14.309 L6.595,8.000 L0.287,1.691 C-0.101,1.303 -0.101,0.674 0.287,0.287 C0.674,-0.101 1.303,-0.101 1.691,0.287 L8.647,7.243 C8.668,7.260 8.694,7.267 8.713,7.287 C8.910,7.483 9.005,7.742 9.002,8.000 C9.005,8.258 8.910,8.517 8.713,8.713 Z"/>
</svg>