<svg 
 xmlns="http://www.w3.org/2000/svg"
 xmlns:xlink="http://www.w3.org/1999/xlink"
 width="8px" height="14px">
<path fill-rule="evenodd"  fill="rgb(0, 0, 0)"
 d="M0.145,6.855 C0.162,6.872 0.188,6.867 0.207,6.881 L6.211,12.885 C6.397,13.071 6.699,13.071 6.885,12.885 C7.071,12.699 7.071,12.397 6.885,12.211 L1.174,6.500 L6.885,0.789 C7.071,0.603 7.071,0.301 6.885,0.115 C6.699,-0.071 6.397,-0.071 6.211,0.115 L0.207,6.119 C0.188,6.133 0.162,6.128 0.145,6.145 C0.047,6.243 0.004,6.372 0.009,6.500 C0.004,6.628 0.047,6.757 0.145,6.855 Z"/>
</svg>