<svg xmlns="http://www.w3.org/2000/svg" width="24" height="24" viewBox="0 0 24 24">
  <defs>
    <style>
      .cls-1 {
        fill: #fc5830;
        fill-rule: evenodd;
      }
    </style>
  </defs>
  <path class="cls-1" d="M1049,58a12,12,0,1,0,12,12A12,12,0,0,0,1049,58Zm7.24,16.995a3.881,3.881,0,0,1-.22.715,2.769,2.769,0,0,1-1.27,1.106,4.031,4.031,0,0,1-1.94.532,4.087,4.087,0,0,1-.55-0.036,4.322,4.322,0,0,1-.6-0.13c-0.22-.063-0.39-0.113-0.49-0.151s-0.31-.109-0.58-0.214-0.45-.167-0.51-0.188a9.108,9.108,0,0,1-1.83-.866,17.551,17.551,0,0,1-5.01-5.01,9.485,9.485,0,0,1-.87-1.826c-0.02-.063-0.08-0.233-0.19-0.511s-0.17-.472-0.21-0.579-0.09-.273-0.15-0.5a4.245,4.245,0,0,1-.13-0.6,3.282,3.282,0,0,1-.04-0.548,4.1,4.1,0,0,1,.53-1.941,2.789,2.789,0,0,1,1.11-1.273,3.933,3.933,0,0,1,.72-0.219,3.354,3.354,0,0,1,.73-0.1,0.582,0.582,0,0,1,.22.031,1.728,1.728,0,0,1,.55.793c0.08,0.132.18,0.32,0.32,0.564s0.25,0.464.36,0.663,0.22,0.385.33,0.559q0.03,0.042.18,0.261a3.112,3.112,0,0,1,.22.371,0.676,0.676,0,0,1,.08.3,0.866,0.866,0,0,1-.3.522,5.453,5.453,0,0,1-.65.574,6.877,6.877,0,0,0-.65.553,0.816,0.816,0,0,0-.29.48,0.588,0.588,0,0,0,.05.235,1.013,1.013,0,0,0,.09.214,2.708,2.708,0,0,0,.14.251,1.011,1.011,0,0,1,.12.2,10.4,10.4,0,0,0,4.27,4.269c0.02,0.007.08,0.047,0.2,0.12s0.2,0.122.25,0.146a1.981,1.981,0,0,0,.22.089,0.67,0.67,0,0,0,.23.052,0.77,0.77,0,0,0,.48-0.3,5.324,5.324,0,0,0,.55-0.647,5.52,5.52,0,0,1,.58-0.647,0.863,0.863,0,0,1,.52-0.3,0.682,0.682,0,0,1,.3.073,3.338,3.338,0,0,1,.37.224c0.14,0.1.23,0.162,0.26,0.183,0.17,0.1.36,0.213,0.56,0.324l0.66,0.365c0.24,0.132.43,0.237,0.56,0.313a1.8,1.8,0,0,1,.8.553,0.608,0.608,0,0,1,.03.219A3.487,3.487,0,0,1,1056.24,74.995Z" transform="translate(-1037 -58)"/>
</svg>
